<mxfile host="app.diagrams.net" agent="Mozilla/5.0 (Windows NT 10.0; Win64; x64) AppleWebKit/537.36 (KHTML, like Gecko) Chrome/129.0.0.0 Safari/537.36" version="24.7.17">
  <diagram name="페이지-1" id="zi3SGu5UwiCvh0rb0jrR">
    <mxGraphModel dx="2634" dy="396" grid="0" gridSize="10" guides="1" tooltips="1" connect="1" arrows="0" fold="1" page="0" pageScale="1" pageWidth="827" pageHeight="1169" math="0" shadow="0">
      <root>
        <mxCell id="0" />
        <mxCell id="1" parent="0" />
        <mxCell id="ag0IcUHSzjZ-EXAiG2p0-3" value="Actor" style="shape=umlActor;verticalLabelPosition=bottom;verticalAlign=top;html=1;labelBackgroundColor=none;" vertex="1" parent="1">
          <mxGeometry x="-906" y="748" width="30" height="60" as="geometry" />
        </mxCell>
        <mxCell id="ag0IcUHSzjZ-EXAiG2p0-425" value="게시판서비스" style="shape=umlFrame;whiteSpace=wrap;html=1;pointerEvents=0;width=106;height=26;labelBackgroundColor=none;" vertex="1" parent="1">
          <mxGeometry x="-777" y="595" width="703" height="547" as="geometry" />
        </mxCell>
        <mxCell id="ag0IcUHSzjZ-EXAiG2p0-429" value="회원가입" style="rounded=1;whiteSpace=wrap;html=1;arcSize=40;labelBackgroundColor=none;" vertex="1" parent="1">
          <mxGeometry x="-738" y="748" width="120" height="40" as="geometry" />
        </mxCell>
        <mxCell id="ag0IcUHSzjZ-EXAiG2p0-446" style="rounded=0;orthogonalLoop=1;jettySize=auto;html=1;exitX=0;exitY=0.5;exitDx=0;exitDy=0;fontSize=12;startArrow=none;startFill=0;endArrow=none;endFill=0;labelBackgroundColor=none;fontColor=default;" edge="1" parent="1" source="ag0IcUHSzjZ-EXAiG2p0-432">
          <mxGeometry relative="1" as="geometry">
            <mxPoint x="-872.9411764705883" y="769.2941176470588" as="targetPoint" />
          </mxGeometry>
        </mxCell>
        <mxCell id="ag0IcUHSzjZ-EXAiG2p0-453" style="edgeStyle=none;curved=1;rounded=0;orthogonalLoop=1;jettySize=auto;html=1;exitX=1;exitY=0.5;exitDx=0;exitDy=0;entryX=0.5;entryY=1;entryDx=0;entryDy=0;fontSize=12;startSize=8;endSize=8;dashed=1;" edge="1" parent="1" source="ag0IcUHSzjZ-EXAiG2p0-432" target="ag0IcUHSzjZ-EXAiG2p0-434">
          <mxGeometry relative="1" as="geometry" />
        </mxCell>
        <mxCell id="ag0IcUHSzjZ-EXAiG2p0-467" style="edgeStyle=none;curved=1;rounded=0;orthogonalLoop=1;jettySize=auto;html=1;exitX=1;exitY=0.5;exitDx=0;exitDy=0;entryX=0;entryY=0.5;entryDx=0;entryDy=0;fontSize=12;startSize=8;endSize=8;endArrow=none;endFill=0;" edge="1" parent="1" source="ag0IcUHSzjZ-EXAiG2p0-432" target="ag0IcUHSzjZ-EXAiG2p0-464">
          <mxGeometry relative="1" as="geometry" />
        </mxCell>
        <mxCell id="ag0IcUHSzjZ-EXAiG2p0-432" value="게시판" style="rounded=1;whiteSpace=wrap;html=1;arcSize=40;labelBackgroundColor=none;" vertex="1" parent="1">
          <mxGeometry x="-738" y="813" width="120" height="40" as="geometry" />
        </mxCell>
        <mxCell id="ag0IcUHSzjZ-EXAiG2p0-447" style="edgeStyle=none;curved=1;rounded=0;orthogonalLoop=1;jettySize=auto;html=1;exitX=0;exitY=0.5;exitDx=0;exitDy=0;fontSize=12;startSize=8;endSize=8;endArrow=none;endFill=0;labelBackgroundColor=none;fontColor=default;" edge="1" parent="1" source="ag0IcUHSzjZ-EXAiG2p0-433">
          <mxGeometry relative="1" as="geometry">
            <mxPoint x="-872.1176470588234" y="768.5294117647059" as="targetPoint" />
          </mxGeometry>
        </mxCell>
        <mxCell id="ag0IcUHSzjZ-EXAiG2p0-454" style="edgeStyle=none;curved=1;rounded=0;orthogonalLoop=1;jettySize=auto;html=1;exitX=1;exitY=0.5;exitDx=0;exitDy=0;entryX=0.5;entryY=1;entryDx=0;entryDy=0;fontSize=12;startSize=8;endSize=8;dashed=1;" edge="1" parent="1" source="ag0IcUHSzjZ-EXAiG2p0-433" target="ag0IcUHSzjZ-EXAiG2p0-434">
          <mxGeometry relative="1" as="geometry" />
        </mxCell>
        <mxCell id="ag0IcUHSzjZ-EXAiG2p0-468" style="edgeStyle=none;curved=1;rounded=0;orthogonalLoop=1;jettySize=auto;html=1;exitX=1;exitY=0.5;exitDx=0;exitDy=0;entryX=0;entryY=0.5;entryDx=0;entryDy=0;fontSize=12;startSize=8;endSize=8;endArrow=none;endFill=0;" edge="1" parent="1" source="ag0IcUHSzjZ-EXAiG2p0-433" target="ag0IcUHSzjZ-EXAiG2p0-464">
          <mxGeometry relative="1" as="geometry">
            <Array as="points">
              <mxPoint x="-221" y="822" />
            </Array>
          </mxGeometry>
        </mxCell>
        <mxCell id="ag0IcUHSzjZ-EXAiG2p0-433" value="게시글보기" style="rounded=1;whiteSpace=wrap;html=1;arcSize=40;labelBackgroundColor=none;" vertex="1" parent="1">
          <mxGeometry x="-738" y="939" width="120" height="40" as="geometry" />
        </mxCell>
        <mxCell id="ag0IcUHSzjZ-EXAiG2p0-448" style="edgeStyle=none;curved=1;rounded=0;orthogonalLoop=1;jettySize=auto;html=1;exitX=1;exitY=0.5;exitDx=0;exitDy=0;entryX=0;entryY=0.5;entryDx=0;entryDy=0;fontSize=12;startSize=8;endSize=8;endArrow=classic;endFill=1;dashed=1;labelBackgroundColor=none;fontColor=default;" edge="1" parent="1" source="ag0IcUHSzjZ-EXAiG2p0-434" target="ag0IcUHSzjZ-EXAiG2p0-435">
          <mxGeometry relative="1" as="geometry" />
        </mxCell>
        <mxCell id="ag0IcUHSzjZ-EXAiG2p0-451" value="&amp;lt;&amp;lt;include&amp;gt;&amp;gt;" style="edgeLabel;html=1;align=center;verticalAlign=middle;resizable=0;points=[];fontSize=12;labelBackgroundColor=none;" vertex="1" connectable="0" parent="ag0IcUHSzjZ-EXAiG2p0-448">
          <mxGeometry x="0.0828" y="-3" relative="1" as="geometry">
            <mxPoint x="-8" y="-11" as="offset" />
          </mxGeometry>
        </mxCell>
        <mxCell id="ag0IcUHSzjZ-EXAiG2p0-434" value="회원 로그인" style="rounded=1;whiteSpace=wrap;html=1;arcSize=40;labelBackgroundColor=none;" vertex="1" parent="1">
          <mxGeometry x="-566" y="626" width="120" height="40" as="geometry" />
        </mxCell>
        <mxCell id="ag0IcUHSzjZ-EXAiG2p0-466" style="edgeStyle=none;curved=1;rounded=0;orthogonalLoop=1;jettySize=auto;html=1;exitX=1;exitY=0.5;exitDx=0;exitDy=0;entryX=0;entryY=0.5;entryDx=0;entryDy=0;fontSize=12;startSize=8;endSize=8;endArrow=none;endFill=0;" edge="1" parent="1" source="ag0IcUHSzjZ-EXAiG2p0-435" target="ag0IcUHSzjZ-EXAiG2p0-464">
          <mxGeometry relative="1" as="geometry" />
        </mxCell>
        <mxCell id="ag0IcUHSzjZ-EXAiG2p0-435" value="인증" style="rounded=1;whiteSpace=wrap;html=1;arcSize=40;labelBackgroundColor=none;" vertex="1" parent="1">
          <mxGeometry x="-247.53" y="628" width="120" height="40" as="geometry" />
        </mxCell>
        <mxCell id="ag0IcUHSzjZ-EXAiG2p0-449" style="edgeStyle=none;curved=1;rounded=0;orthogonalLoop=1;jettySize=auto;html=1;exitX=0;exitY=0.5;exitDx=0;exitDy=0;entryX=1;entryY=0.5;entryDx=0;entryDy=0;fontSize=12;startSize=8;endSize=8;endArrow=classic;endFill=1;labelBackgroundColor=none;fontColor=default;dashed=1;startArrow=none;startFill=0;" edge="1" parent="1" source="ag0IcUHSzjZ-EXAiG2p0-436" target="ag0IcUHSzjZ-EXAiG2p0-434">
          <mxGeometry relative="1" as="geometry" />
        </mxCell>
        <mxCell id="ag0IcUHSzjZ-EXAiG2p0-436" value="로그인 실패" style="rounded=1;whiteSpace=wrap;html=1;arcSize=40;labelBackgroundColor=none;" vertex="1" parent="1">
          <mxGeometry x="-247.53" y="710" width="120" height="40" as="geometry" />
        </mxCell>
        <mxCell id="ag0IcUHSzjZ-EXAiG2p0-456" style="edgeStyle=none;curved=1;rounded=0;orthogonalLoop=1;jettySize=auto;html=1;exitX=0;exitY=0.5;exitDx=0;exitDy=0;fontSize=12;startSize=8;endSize=8;dashed=1;" edge="1" parent="1" source="ag0IcUHSzjZ-EXAiG2p0-437">
          <mxGeometry relative="1" as="geometry">
            <mxPoint x="-616" y="833" as="targetPoint" />
          </mxGeometry>
        </mxCell>
        <mxCell id="ag0IcUHSzjZ-EXAiG2p0-437" value="게시판 정렬" style="rounded=1;whiteSpace=wrap;html=1;arcSize=40;labelBackgroundColor=none;" vertex="1" parent="1">
          <mxGeometry x="-499" y="759" width="120" height="40" as="geometry" />
        </mxCell>
        <mxCell id="ag0IcUHSzjZ-EXAiG2p0-457" style="edgeStyle=none;curved=1;rounded=0;orthogonalLoop=1;jettySize=auto;html=1;exitX=0;exitY=0.5;exitDx=0;exitDy=0;fontSize=12;startSize=8;endSize=8;dashed=1;" edge="1" parent="1" source="ag0IcUHSzjZ-EXAiG2p0-438">
          <mxGeometry relative="1" as="geometry">
            <mxPoint x="-613" y="836" as="targetPoint" />
          </mxGeometry>
        </mxCell>
        <mxCell id="ag0IcUHSzjZ-EXAiG2p0-438" value="게시판 검색" style="rounded=1;whiteSpace=wrap;html=1;arcSize=40;labelBackgroundColor=none;" vertex="1" parent="1">
          <mxGeometry x="-499" y="821" width="120" height="40" as="geometry" />
        </mxCell>
        <mxCell id="ag0IcUHSzjZ-EXAiG2p0-469" style="edgeStyle=none;curved=1;rounded=0;orthogonalLoop=1;jettySize=auto;html=1;exitX=1;exitY=0.5;exitDx=0;exitDy=0;fontSize=12;startSize=8;endSize=8;endArrow=none;endFill=0;" edge="1" parent="1" source="ag0IcUHSzjZ-EXAiG2p0-439">
          <mxGeometry relative="1" as="geometry">
            <mxPoint x="68" y="764" as="targetPoint" />
          </mxGeometry>
        </mxCell>
        <mxCell id="ag0IcUHSzjZ-EXAiG2p0-439" value="게시글쓰기, 수정, 삭제" style="rounded=1;whiteSpace=wrap;html=1;arcSize=40;labelBackgroundColor=none;" vertex="1" parent="1">
          <mxGeometry x="-494" y="915" width="132" height="40" as="geometry" />
        </mxCell>
        <mxCell id="ag0IcUHSzjZ-EXAiG2p0-470" style="edgeStyle=none;curved=1;rounded=0;orthogonalLoop=1;jettySize=auto;html=1;exitX=1;exitY=0.5;exitDx=0;exitDy=0;entryX=0;entryY=0.5;entryDx=0;entryDy=0;fontSize=12;startSize=8;endSize=8;endArrow=none;endFill=0;" edge="1" parent="1" source="ag0IcUHSzjZ-EXAiG2p0-440" target="ag0IcUHSzjZ-EXAiG2p0-464">
          <mxGeometry relative="1" as="geometry" />
        </mxCell>
        <mxCell id="ag0IcUHSzjZ-EXAiG2p0-440" value="댓글 보기 쓰기, 수정&lt;div&gt;, 삭제&lt;/div&gt;" style="rounded=1;whiteSpace=wrap;html=1;arcSize=40;labelBackgroundColor=none;" vertex="1" parent="1">
          <mxGeometry x="-492" y="997" width="133" height="41" as="geometry" />
        </mxCell>
        <mxCell id="ag0IcUHSzjZ-EXAiG2p0-441" style="edgeStyle=none;curved=1;rounded=0;orthogonalLoop=1;jettySize=auto;html=1;exitX=1;exitY=0.5;exitDx=0;exitDy=0;fontSize=12;startSize=8;endSize=8;labelBackgroundColor=none;fontColor=default;" edge="1" parent="1" source="ag0IcUHSzjZ-EXAiG2p0-440" target="ag0IcUHSzjZ-EXAiG2p0-440">
          <mxGeometry relative="1" as="geometry" />
        </mxCell>
        <mxCell id="ag0IcUHSzjZ-EXAiG2p0-444" value="" style="endArrow=none;html=1;rounded=0;fontSize=12;startSize=8;endSize=8;curved=1;entryX=0;entryY=0.5;entryDx=0;entryDy=0;exitX=1;exitY=0.3333333333333333;exitDx=0;exitDy=0;exitPerimeter=0;labelBackgroundColor=none;fontColor=default;" edge="1" parent="1" source="ag0IcUHSzjZ-EXAiG2p0-3" target="ag0IcUHSzjZ-EXAiG2p0-429">
          <mxGeometry width="50" height="50" relative="1" as="geometry">
            <mxPoint x="-869" y="773" as="sourcePoint" />
            <mxPoint x="-702" y="748" as="targetPoint" />
          </mxGeometry>
        </mxCell>
        <mxCell id="ag0IcUHSzjZ-EXAiG2p0-445" value="" style="endArrow=none;html=1;rounded=0;fontSize=12;startSize=8;endSize=8;curved=1;entryX=0;entryY=0.5;entryDx=0;entryDy=0;labelBackgroundColor=none;fontColor=default;" edge="1" parent="1" target="ag0IcUHSzjZ-EXAiG2p0-434">
          <mxGeometry width="50" height="50" relative="1" as="geometry">
            <mxPoint x="-874" y="768" as="sourcePoint" />
            <mxPoint x="-728" y="738" as="targetPoint" />
          </mxGeometry>
        </mxCell>
        <mxCell id="ag0IcUHSzjZ-EXAiG2p0-452" value="&amp;lt;&amp;lt;extend&amp;gt;&amp;gt;" style="edgeLabel;html=1;align=center;verticalAlign=middle;resizable=0;points=[];fontSize=12;labelBackgroundColor=none;" vertex="1" connectable="0" parent="1">
          <mxGeometry x="-336.9956621245953" y="688.9980415491136" as="geometry" />
        </mxCell>
        <mxCell id="ag0IcUHSzjZ-EXAiG2p0-455" value="&amp;lt;&amp;lt;include&amp;gt;&amp;gt;" style="edgeLabel;html=1;align=center;verticalAlign=middle;resizable=0;points=[];fontSize=12;labelBackgroundColor=none;" vertex="1" connectable="0" parent="1">
          <mxGeometry x="-536.9956621245954" y="720.9980415491136" as="geometry" />
        </mxCell>
        <mxCell id="ag0IcUHSzjZ-EXAiG2p0-458" value="&amp;lt;&amp;lt;extend&amp;gt;&amp;gt;" style="edgeLabel;html=1;align=center;verticalAlign=middle;resizable=0;points=[];fontSize=12;labelBackgroundColor=none;" vertex="1" connectable="0" parent="1">
          <mxGeometry x="-511.9956621245953" y="812.9980415491136" as="geometry" />
        </mxCell>
        <mxCell id="ag0IcUHSzjZ-EXAiG2p0-459" style="edgeStyle=none;curved=1;rounded=0;orthogonalLoop=1;jettySize=auto;html=1;exitX=0;exitY=0.5;exitDx=0;exitDy=0;fontSize=12;startSize=8;endSize=8;dashed=1;" edge="1" parent="1">
          <mxGeometry relative="1" as="geometry">
            <mxPoint x="-613" y="955" as="targetPoint" />
            <mxPoint x="-494" y="933" as="sourcePoint" />
          </mxGeometry>
        </mxCell>
        <mxCell id="ag0IcUHSzjZ-EXAiG2p0-460" style="edgeStyle=none;curved=1;rounded=0;orthogonalLoop=1;jettySize=auto;html=1;exitX=0;exitY=0.5;exitDx=0;exitDy=0;fontSize=12;startSize=8;endSize=8;dashed=1;entryX=1;entryY=0.5;entryDx=0;entryDy=0;" edge="1" parent="1" target="ag0IcUHSzjZ-EXAiG2p0-433">
          <mxGeometry relative="1" as="geometry">
            <mxPoint x="-608" y="1009" as="targetPoint" />
            <mxPoint x="-494" y="1014" as="sourcePoint" />
          </mxGeometry>
        </mxCell>
        <mxCell id="ag0IcUHSzjZ-EXAiG2p0-461" value="&amp;lt;&amp;lt;extend&amp;gt;&amp;gt;" style="edgeLabel;html=1;align=center;verticalAlign=middle;resizable=0;points=[];fontSize=12;labelBackgroundColor=none;" vertex="1" connectable="0" parent="1">
          <mxGeometry x="-511.9956621245953" y="962.9980415491136" as="geometry" />
        </mxCell>
        <mxCell id="ag0IcUHSzjZ-EXAiG2p0-464" value="&lt;p style=&quot;margin:0px;margin-top:6px;text-align:center;&quot;&gt;&lt;/p&gt;&lt;p style=&quot;margin:0px;margin-left:8px;&quot;&gt;&lt;b&gt;&lt;br&gt;&lt;/b&gt;&lt;/p&gt;&lt;p style=&quot;margin:0px;margin-left:8px;&quot;&gt;&lt;b&gt;&lt;br&gt;&lt;/b&gt;&lt;/p&gt;&lt;p style=&quot;margin:0px;margin-left:8px;&quot;&gt;&lt;b&gt;&amp;nbsp; &lt;span style=&quot;white-space: pre;&quot;&gt;&#x9;&lt;/span&gt;DB&lt;/b&gt;&lt;/p&gt;" style="align=left;overflow=fill;html=1;dropTarget=0;whiteSpace=wrap;" vertex="1" parent="1">
          <mxGeometry x="69" y="718" width="83" height="90" as="geometry" />
        </mxCell>
      </root>
    </mxGraphModel>
  </diagram>
</mxfile>
